<?xml version="1.0" standalone="no"?>
<!DOCTYPE svg PUBLIC "-//W3C//DTD SVG 20010904//EN"
 "http://www.w3.org/TR/2001/REC-SVG-20010904/DTD/svg10.dtd">
<svg version="1.0" xmlns="http://www.w3.org/2000/svg"
 width="474.000000pt" height="447.000000pt" viewBox="0 0 474.000000 447.000000"
 preserveAspectRatio="xMidYMid meet">

<g transform="translate(0.000000,447.000000) scale(0.100000,-0.100000)"
fill="#000000" stroke="none">
<path d="M2373 4006 c-10 -18 -99 -24 -115 -8 -18 18 -36 15 -48 -7 -13 -26
-114 -64 -170 -65 -42 -1 -45 -3 -45 -28 -1 -39 -181 -258 -212 -258 -32 0
-48 -34 -27 -55 14 -14 16 -33 9 -143 -3 -70 -11 -128 -16 -130 -14 -5 -11
-33 5 -51 23 -25 100 -233 100 -271 1 -30 5 -35 32 -40 43 -9 223 -137 234
-166 10 -25 43 -33 55 -14 10 16 276 1 296 -16 22 -20 34 -17 52 10 21 31 231
139 256 131 22 -7 46 19 37 41 -9 24 121 263 150 274 26 10 32 35 10 47 -20
12 -28 229 -9 244 21 18 15 48 -12 61 -16 7 -45 45 -76 100 -28 49 -53 87 -56
84 -3 -3 18 -45 46 -93 28 -49 51 -92 51 -95 0 -4 -13 0 -28 7 -22 12 -33 30
-52 87 -22 70 -27 91 -35 167 -4 39 -20 53 -52 45 -32 -8 -292 101 -316 132
-21 27 -52 32 -64 10z m-55 -108 c-77 -89 -100 -94 -195 -45 -35 18 -63 35
-63 39 0 4 12 11 28 15 164 41 251 61 270 62 20 1 15 -8 -40 -71z m-113 52
c-11 -5 -27 -9 -35 -9 -9 0 -8 4 5 9 11 5 27 9 35 9 9 0 8 -4 -5 -9z m300 -59
c41 -36 74 -69 72 -75 -6 -17 -307 -20 -307 -4 1 24 118 145 139 144 11 0 54
-30 96 -65z m95 9 c69 -29 129 -56 134 -60 14 -13 -82 -24 -98 -11 -7 6 -20 9
-28 6 -12 -5 -99 62 -153 118 -12 12 -17 14 145 -53z m-475 -63 c33 -18 61
-39 63 -47 4 -23 -243 -131 -281 -123 -23 4 -29 2 -34 -16 -3 -11 -13 -21 -22
-22 -9 -1 -5 -4 9 -8 14 -4 24 -12 23 -17 -1 -5 -4 -23 -7 -39 l-6 -30 11 32
c7 17 17 34 24 37 17 6 78 -81 71 -101 -4 -10 -2 -14 8 -10 15 6 30 -19 20
-34 -3 -5 2 -9 10 -9 22 0 49 -45 41 -69 -3 -11 -18 -24 -33 -30 l-27 -11 28
5 c51 10 60 -11 51 -125 -3 -56 -9 -99 -11 -96 -2 2 -8 28 -12 58 -10 69 -14
82 -26 90 -13 10 -27 10 -43 0 -16 -11 6 -67 52 -132 27 -39 31 -52 28 -97 -2
-29 -7 -53 -11 -53 -14 0 -231 267 -231 284 0 9 6 16 13 17 7 0 6 3 -3 6 -33
13 -39 37 -40 161 0 75 4 122 10 122 6 0 10 7 10 15 0 8 6 15 13 15 8 0 8 3
-2 9 -17 11 -24 0 93 141 43 52 85 95 93 96 8 2 17 5 21 8 11 12 39 5 97 -27z
m637 -33 c23 -8 89 -209 82 -246 -5 -21 -13 -27 -42 -33 -21 -3 -47 -9 -59
-12 -19 -4 -26 3 -44 41 -18 35 -26 43 -36 34 -17 -14 -17 -28 2 -28 10 0 15
-10 15 -29 0 -25 -5 -30 -42 -39 -35 -9 -46 -8 -59 4 -15 14 -15 23 8 132 14
64 30 123 36 130 8 10 34 -10 115 -90 61 -59 88 -82 65 -53 -23 28 -67 75 -97
105 -31 30 -56 60 -56 67 0 7 12 15 28 19 15 3 32 7 37 9 6 2 15 1 20 -1 6 -2
18 -7 27 -10z m-172 -29 c12 -15 9 -35 -27 -197 -11 -52 -19 -68 -32 -68 -9 0
-66 49 -125 109 -99 101 -107 111 -96 132 11 20 10 21 -14 15 -14 -3 -26 -2
-26 3 0 12 51 17 196 19 87 2 114 -1 124 -13z m-380 -25 c0 -5 -12 -13 -27
-16 -23 -6 -24 -8 -10 -19 19 -14 23 -45 6 -45 -5 0 -8 -4 -5 -9 5 -8 -58
-208 -69 -220 -4 -3 -9 0 -13 6 -5 7 -11 7 -20 -3 -11 -12 -9 -16 9 -22 18 -7
19 -10 6 -15 -10 -4 -21 3 -31 19 -15 22 -13 29 7 25 5 -1 6 3 2 9 -3 6 -11 8
-16 5 -5 -4 -9 -1 -9 4 0 6 -6 11 -12 11 -21 1 -100 127 -94 148 4 12 50 39
129 75 124 57 147 65 147 47z m173 -128 c91 -91 126 -133 122 -144 -4 -11 -33
-22 -83 -33 -42 -9 -124 -27 -182 -40 -73 -16 -109 -20 -117 -13 -17 14 -7 28
20 28 20 0 20 1 2 14 -22 16 -14 49 10 40 8 -3 15 -1 15 5 0 6 -4 11 -10 11
-16 0 -12 29 15 110 32 95 36 100 76 110 31 7 32 9 12 15 -21 7 -32 25 -15 25
4 0 65 -58 135 -128z m465 -114 c14 -18 -70 -343 -88 -343 -8 0 -23 15 -33 33
-17 30 -18 36 -6 59 10 18 14 61 14 134 l-1 107 41 10 c56 14 61 14 73 0z m94
-105 c2 -51 2 -91 0 -89 -2 2 -14 43 -27 92 -19 67 -22 91 -13 101 22 27 36
-8 40 -104z m-33 -27 c21 -76 27 -116 21 -131 -9 -24 -127 -102 -138 -91 -6 7
9 74 61 270 12 43 22 75 24 70 2 -5 16 -58 32 -118z m-236 83 c-15 -30 -56
-54 -74 -43 -12 7 -12 54 1 54 6 0 10 -7 10 -16 0 -11 5 -14 16 -10 9 3 18 6
20 6 2 0 4 6 4 14 0 13 13 23 32 25 3 1 0 -13 -9 -30z m-159 -26 c8 -19 -53
-175 -65 -167 -5 3 -6 18 -2 34 3 19 1 30 -6 30 -6 0 -11 11 -11 24 0 14 -4
28 -10 31 -6 3 -7 -1 -4 -10 4 -10 -1 -22 -16 -32 -14 -10 -20 -22 -17 -34 11
-42 -22 -30 -44 15 -23 48 -41 53 -75 19 -16 -17 -28 -36 -26 -42 2 -6 -2 -18
-8 -26 -10 -12 -19 -9 -56 23 -58 50 -57 66 7 80 28 7 55 10 59 7 5 -3 10 -1
12 3 2 6 194 53 249 61 4 1 10 -7 13 -16z m61 -42 c0 -15 -7 -25 -18 -27 -26
-4 -47 -23 -41 -39 5 -12 -13 -32 -21 -23 -3 2 5 30 18 61 18 46 26 57 42 55
14 -2 20 -11 20 -27z m-798 -58 c-3 -10 -5 -4 -5 12 0 17 2 24 5 18 2 -7 2
-21 0 -30z m803 2 c0 -8 4 -15 9 -15 5 0 8 -8 6 -17 -3 -18 -17 -19 -45 -3
-10 7 -11 9 -2 10 7 0 10 5 7 10 -7 12 2 30 16 30 5 0 9 -7 9 -15z m-420 -41
c25 -26 35 -45 35 -68 0 -24 4 -31 20 -31 16 0 20 -7 18 -29 -3 -35 -7 -40
-28 -32 -12 4 -14 12 -10 28 10 32 -11 11 -33 -33 -9 -19 -28 -39 -41 -46 -24
-11 -24 -12 22 -41 l47 -29 -45 -18 c-66 -25 -79 -16 -71 48 3 28 8 97 11 152
10 153 15 160 75 99z m339 -38 c1 6 13 17 27 24 20 11 27 12 33 1 5 -7 19 -14
32 -16 60 -10 85 -18 97 -33 14 -19 16 -36 2 -27 -5 3 -10 1 -10 -5 0 -7 7
-10 15 -6 18 7 48 -35 40 -56 -8 -21 -195 -43 -207 -25 -13 21 -9 36 15 48 12
7 24 15 27 18 3 3 18 13 34 21 26 13 29 13 42 -5 8 -10 14 -13 14 -6 0 15 -26
42 -43 45 -6 1 -18 5 -24 9 -8 5 -13 3 -13 -7 0 -8 6 -17 13 -19 6 -3 -11 -6
-39 -6 -65 -1 -90 16 -79 55 l8 29 7 -25 c5 -14 8 -20 9 -14z m-701 -37 c-3
-8 -7 -3 -11 10 -4 17 -3 21 5 13 5 -5 8 -16 6 -23z m121 -100 c56 -66 105
-127 108 -136 5 -14 -2 -15 -52 -8 -87 10 -98 23 -134 147 -32 109 -34 118
-27 118 2 0 49 -54 105 -121z m944 -40 l-68 -132 -9 66 c-7 55 -6 69 8 82 9 9
16 23 16 30 0 11 103 85 118 85 2 0 -27 -59 -65 -131z m-133 20 c0 -15 -231
-249 -246 -249 -10 0 -54 106 -54 131 0 3 21 14 48 24 52 20 132 71 132 85 0
5 19 11 43 13 23 2 50 4 60 5 9 1 17 -3 17 -9z m-152 -16 c-10 -2 -26 -2 -35
0 -10 3 -2 5 17 5 19 0 27 -2 18 -5z m195 -65 c3 -38 1 -68 -6 -79 -7 -12 -58
-34 -131 -59 -66 -22 -121 -39 -122 -37 -2 1 49 57 112 124 68 72 120 120 128
117 8 -3 15 -29 19 -66z m-434 -33 l75 -2 22 -66 c13 -40 19 -69 13 -73 -12
-7 -349 104 -349 115 0 5 28 17 62 29 49 15 67 18 83 9 11 -6 53 -11 94 -12z
m-308 -41 c8 -8 21 -14 27 -14 7 0 25 -27 42 -60 l30 -60 -83 57 c-45 32 -96
68 -112 80 l-30 22 55 -6 c30 -3 62 -12 71 -19z m242 -64 c87 -28 157 -53 155
-55 -2 -2 -54 -8 -116 -15 -141 -15 -163 -8 -198 61 -27 54 -30 73 -11 67 6
-3 83 -29 170 -58z m397 -11 c-45 -30 -154 -79 -161 -72 -15 15 6 30 81 56 82
28 103 32 80 16z m-216 -74 c18 -14 15 -15 -40 -15 -32 0 -77 4 -99 8 l-40 7
55 6 c91 10 104 9 124 -6z"/>
<path d="M1957 3764 c-37 -74 -33 -83 4 -10 17 32 29 60 27 62 -2 2 -16 -21
-31 -52z"/>
<path d="M1940 3330 c-20 -6 -21 -8 -5 -8 11 0 29 3 40 8 25 11 -1 11 -35 0z"/>
<path d="M1865 3310 c-13 -5 -14 -9 -5 -9 8 0 24 4 35 9 13 5 14 9 5 9 -8 0
-24 -4 -35 -9z"/>
<path d="M2348 3763 c7 -3 16 -2 19 1 4 3 -2 6 -13 5 -11 0 -14 -3 -6 -6z"/>
<path d="M2086 3594 c-9 -24 -2 -26 12 -4 7 11 8 20 3 20 -5 0 -12 -7 -15 -16z"/>
<path d="M2011 3576 c-8 -9 -8 -16 -2 -20 6 -4 15 3 21 14 12 23 -2 27 -19 6z"/>
<path d="M2530 3230 c0 -6 7 -10 15 -10 8 0 15 2 15 4 0 2 -7 6 -15 10 -8 3
-15 1 -15 -4z"/>
<path d="M1125 2587 c-184 -48 -275 -191 -263 -413 11 -203 113 -324 296 -356
185 -31 351 53 414 211 19 47 22 75 22 176 0 103 -3 129 -23 180 -33 81 -107
154 -186 184 -73 28 -190 36 -260 18z m219 -144 c24 -17 53 -51 71 -83 27 -50
30 -63 30 -150 0 -86 -3 -101 -30 -155 -93 -186 -332 -159 -389 44 -44 157 9
314 124 366 54 24 143 14 194 -22z"/>
<path d="M1940 2594 c-139 -27 -211 -98 -211 -208 0 -66 17 -103 71 -148 38
-34 87 -52 250 -95 30 -8 67 -26 82 -40 59 -56 25 -148 -63 -173 -95 -28 -168
4 -211 93 -17 33 -39 62 -53 69 -61 28 -108 -28 -86 -104 18 -59 91 -133 154
-155 78 -27 226 -25 292 5 114 52 167 151 143 265 -19 92 -80 135 -261 186
-158 44 -177 57 -177 121 0 43 49 73 125 78 76 4 112 -17 150 -86 33 -60 65
-74 104 -44 30 22 35 40 27 88 -16 80 -112 141 -236 148 -41 3 -86 2 -100 0z"/>
<path d="M2512 2581 c-19 -5 -39 -14 -45 -20 -16 -16 -22 -672 -7 -701 18 -34
81 -43 265 -37 94 3 187 11 209 17 21 6 57 29 80 51 105 96 80 267 -46 320
-34 14 -35 23 -3 37 43 20 76 83 76 145 0 85 -36 139 -116 173 -31 13 -78 18
-210 20 -93 2 -185 -1 -203 -5z m338 -129 c32 -15 35 -21 38 -65 6 -93 -35
-117 -195 -117 l-93 0 0 100 0 100 108 0 c82 0 115 -4 142 -18z m31 -315 c45
-30 60 -83 36 -133 -25 -52 -64 -64 -202 -64 l-115 0 0 110 0 110 124 0 c112
0 126 -2 157 -23z"/>
<path d="M3282 2581 c-19 -5 -39 -14 -45 -20 -9 -9 -13 -111 -15 -350 -3 -322
-2 -339 17 -362 19 -24 21 -24 198 -23 214 1 262 14 335 92 71 75 92 142 92
287 0 144 -20 206 -90 284 -67 75 -120 91 -308 96 -83 3 -166 1 -184 -4z m315
-132 c80 -30 112 -97 113 -235 0 -120 -16 -177 -66 -225 l-35 -34 -120 -3
-119 -4 0 256 0 256 99 0 c55 0 112 -5 128 -11z"/>
<path d="M2040 1630 c0 -16 5 -21 23 -18 12 2 22 10 22 18 0 8 -10 16 -22 18
-18 3 -23 -2 -23 -18z"/>
<path d="M1715 1500 c0 -127 2 -140 18 -140 15 0 17 13 17 140 0 127 -2 140
-17 140 -16 0 -18 -13 -18 -140z"/>
<path d="M1880 1500 c0 -133 1 -140 20 -140 19 0 20 7 20 140 0 133 -1 140
-20 140 -19 0 -20 -7 -20 -140z"/>
<path d="M1471 1617 c-6 -8 -17 -31 -25 -53 -8 -21 -28 -76 -45 -121 -29 -80
-30 -83 -10 -83 13 0 24 10 30 30 10 29 13 30 69 30 56 0 59 -1 69 -30 6 -20
17 -30 30 -30 23 0 26 -13 -39 160 -41 110 -54 126 -79 97z m42 -100 c9 -30
17 -57 17 -60 0 -4 -18 -7 -40 -7 -22 0 -40 3 -40 7 0 16 34 113 40 113 3 0
14 -24 23 -53z"/>
<path d="M2040 1465 c0 -98 1 -105 20 -105 19 0 20 7 20 105 0 98 -1 105 -20
105 -19 0 -20 -7 -20 -105z"/>
<path d="M2226 1539 c-38 -45 -37 -110 3 -150 34 -33 83 -39 119 -13 20 14 22
14 22 0 0 -9 9 -16 20 -16 19 0 20 7 20 105 0 98 -1 105 -20 105 -12 0 -20 -7
-20 -17 0 -15 -1 -15 -18 0 -11 10 -35 17 -59 17 -34 0 -46 -6 -67 -31z m124
-19 c20 -20 27 -74 12 -96 -10 -15 -47 -34 -66 -34 -52 0 -78 103 -34 134 31
22 64 20 88 -4z"/>
<path d="M2540 1465 c0 -87 3 -105 15 -105 12 0 15 14 15 63 0 80 16 111 56
115 50 5 64 -18 64 -104 0 -67 2 -74 20 -74 18 0 20 7 20 79 0 64 -4 83 -21
105 -24 31 -81 36 -117 10 -20 -14 -22 -14 -22 0 0 9 -7 16 -15 16 -12 0 -15
-18 -15 -105z"/>
<path d="M2875 1546 c-33 -33 -41 -85 -20 -129 18 -39 50 -57 101 -57 37 0 84
36 84 65 0 22 -20 18 -46 -10 -29 -32 -58 -32 -89 0 -27 26 -31 54 -14 88 24
45 68 50 103 12 29 -31 56 -34 49 -5 -16 59 -122 82 -168 36z"/>
<path d="M3185 1546 c-32 -32 -40 -69 -26 -117 15 -50 57 -74 115 -66 41 6 76
35 76 63 0 22 -20 17 -46 -11 -28 -30 -67 -32 -94 -5 -40 40 -27 50 59 50 44
0 82 4 86 10 9 15 -21 77 -43 89 -38 20 -101 13 -127 -13z m115 -26 c33 -33
24 -40 -45 -40 -69 0 -79 8 -48 42 21 24 68 23 93 -2z"/>
<path d="M1990 530 c0 -109 2 -130 15 -130 8 0 15 6 15 14 0 12 5 12 31 -1 45
-22 95 -10 119 30 11 18 20 41 20 52 0 11 -9 34 -20 52 -22 37 -69 51 -113 34
-27 -10 -27 -10 -27 34 0 38 -3 45 -20 45 -19 0 -20 -7 -20 -130z m142 13 c22
-20 23 -70 1 -95 -36 -40 -103 -10 -103 45 0 58 60 88 102 50z"/>
<path d="M2380 609 c0 -50 0 -50 -22 -35 -38 27 -95 16 -125 -23 -16 -21 -16
-91 0 -112 30 -39 87 -50 125 -23 20 14 22 14 22 0 0 -9 7 -16 15 -16 13 0 15
21 15 130 0 109 -2 130 -15 130 -11 0 -15 -12 -15 -51z m-20 -69 c11 -11 20
-31 20 -45 0 -14 -9 -34 -20 -45 -58 -58 -142 20 -94 88 19 28 67 29 94 2z"/>
<path d="M2680 530 c0 -123 1 -130 20 -130 19 0 20 7 20 130 0 123 -1 130 -20
130 -19 0 -20 -7 -20 -130z"/>
<path d="M2780 530 c0 -123 1 -130 20 -130 19 0 20 7 20 130 0 123 -1 130 -20
130 -19 0 -20 -7 -20 -130z"/>
<path d="M2880 645 c0 -8 9 -15 20 -15 11 0 20 7 20 15 0 8 -9 15 -20 15 -11
0 -20 -7 -20 -15z"/>
<path d="M568 495 c44 -118 59 -123 91 -30 13 36 27 65 31 65 4 0 18 -29 31
-65 32 -92 48 -88 89 25 18 50 36 90 40 90 4 0 22 -40 40 -90 41 -113 57 -117
89 -25 13 36 27 65 31 65 4 0 18 -29 31 -65 32 -92 48 -88 89 25 18 50 34 90
35 90 1 0 17 -40 35 -90 41 -113 57 -117 89 -25 13 36 27 65 31 65 4 0 18 -29
31 -65 32 -93 47 -88 91 31 29 76 33 94 20 92 -9 -2 -27 -33 -43 -78 -30 -83
-25 -86 -65 28 -25 69 -42 64 -74 -21 -13 -37 -27 -67 -31 -67 -3 0 -17 32
-30 70 -23 68 -25 71 -53 68 -27 -3 -32 -10 -57 -78 -30 -83 -25 -86 -65 28
-25 69 -42 64 -74 -21 -13 -37 -27 -67 -31 -67 -3 0 -17 32 -30 70 -24 71 -24
71 -58 68 -33 -3 -36 -6 -62 -78 -30 -83 -25 -86 -65 28 -25 69 -42 64 -74
-21 -13 -37 -27 -67 -31 -67 -3 0 -17 32 -30 70 -16 49 -29 70 -40 70 -14 0
-11 -14 19 -95z"/>
<path d="M1630 583 c-64 -25 -82 -109 -34 -154 38 -36 107 -34 140 4 49 57 17
143 -56 152 -19 2 -42 2 -50 -2z m80 -43 c11 -11 20 -31 20 -45 0 -14 -9 -34
-20 -45 -58 -58 -142 20 -94 88 19 28 67 29 94 2z"/>
<path d="M1822 574 c-24 -17 -29 -56 -9 -73 8 -6 31 -14 53 -19 29 -6 39 -13
39 -27 0 -15 -8 -21 -32 -23 -18 -2 -41 1 -52 7 -15 8 -20 7 -25 -5 -7 -19 17
-29 77 -29 37 0 52 5 63 19 28 40 13 63 -52 80 -37 9 -49 17 -49 32 0 16 7 19
49 19 56 0 73 19 25 29 -47 9 -62 8 -87 -10z"/>
<path d="M2493 580 c-39 -16 -26 -30 22 -23 47 6 75 -6 75 -33 0 -10 -13 -14
-43 -14 -79 0 -117 -60 -62 -96 28 -18 90 -13 98 9 3 7 6 4 6 -5 1 -10 8 -18
16 -18 12 0 15 15 15 73 0 44 -5 80 -13 91 -15 20 -82 30 -114 16z m97 -115
c0 -18 -31 -35 -64 -35 -28 0 -41 14 -32 35 8 21 96 21 96 0z"/>
<path d="M2880 495 c0 -88 1 -95 20 -95 19 0 20 7 20 95 0 88 -1 95 -20 95
-19 0 -20 -7 -20 -95z"/>
<path d="M3003 580 c-39 -16 -26 -30 22 -23 47 6 75 -6 75 -33 0 -10 -13 -14
-43 -14 -79 0 -117 -60 -62 -96 28 -18 90 -13 98 9 3 7 6 4 6 -5 1 -10 8 -18
16 -18 12 0 15 15 15 73 0 44 -5 80 -13 91 -15 20 -82 30 -114 16z m97 -115
c0 -18 -31 -35 -64 -35 -28 0 -41 14 -32 35 8 21 96 21 96 0z"/>
<path d="M3200 495 c0 -88 1 -95 20 -95 18 0 20 7 20 64 0 71 14 96 55 96 41
0 55 -25 55 -96 0 -51 3 -64 15 -64 13 0 15 13 13 76 -3 71 -5 79 -31 98 -24
18 -32 19 -70 9 -25 -7 -43 -8 -45 -2 -2 5 -10 9 -18 9 -11 0 -14 -20 -14 -95z"/>
<path d="M3490 583 c-64 -25 -82 -109 -34 -154 30 -28 100 -33 128 -10 24 20
5 35 -27 20 -55 -25 -108 18 -93 76 9 37 48 52 92 36 40 -15 55 -8 33 15 -17
16 -75 27 -99 17z"/>
<path d="M3675 578 c-33 -19 -44 -41 -45 -84 0 -56 35 -89 94 -89 43 0 81 19
70 36 -3 5 -13 5 -24 -1 -29 -16 -75 -12 -93 8 -10 10 -17 22 -17 25 0 4 34 7
75 7 74 0 75 0 75 26 0 58 -82 102 -135 72z m87 -35 c29 -26 21 -33 -42 -33
-33 0 -60 3 -60 7 0 3 7 15 17 25 20 22 61 23 85 1z"/>
<path d="M3990 583 c-64 -25 -82 -109 -34 -154 38 -36 107 -34 140 4 49 57 17
143 -56 152 -19 2 -42 2 -50 -2z m80 -43 c40 -40 11 -110 -45 -110 -31 0 -65
33 -65 63 0 60 68 89 110 47z"/>
<path d="M4160 495 c0 -88 1 -95 20 -95 18 0 20 7 20 64 0 66 14 96 46 96 8 0
14 7 14 16 0 15 -10 14 -57 -3 -7 -3 -13 0 -13 6 0 6 -7 11 -15 11 -12 0 -15
-17 -15 -95z"/>
<path d="M4335 578 c-33 -17 -45 -40 -45 -80 0 -73 64 -106 143 -73 24 10 23
-27 -3 -50 -18 -16 -63 -18 -109 -4 -7 2 -15 -1 -18 -8 -6 -17 68 -37 111 -29
56 11 66 35 66 153 0 85 -3 103 -15 103 -8 0 -15 -7 -15 -16 0 -14 -2 -14 -22
0 -26 18 -64 20 -93 4z m97 -35 c41 -37 9 -103 -51 -103 -53 0 -80 62 -44 102
20 22 70 23 95 1z"/>
<path d="M1493 434 c-8 -21 13 -42 28 -27 13 13 5 43 -11 43 -6 0 -13 -7 -17
-16z"/>
<path d="M3853 434 c-8 -21 13 -42 28 -27 13 13 5 43 -11 43 -6 0 -13 -7 -17
-16z"/>
</g>
</svg>
